<?xml version="1.0" encoding="UTF-8" standalone="no"?>
<svg
   version="1.0"
   width="2000px"
   height="250px"
   viewBox="0 0 2000 250"
   preserveAspectRatio="xMidYMid meet"
   id="svg12"
   sodipodi:docname="spearyx-logo-trans.svg"
   inkscape:export-filename="spearyx-logo-not trans.png"
   inkscape:export-xdpi="96"
   inkscape:export-ydpi="96"
   inkscape:version="1.4.2 (f4327f4, 2025-05-13)"
   xmlns:inkscape="http://www.inkscape.org/namespaces/inkscape"
   xmlns:sodipodi="http://sodipodi.sourceforge.net/DTD/sodipodi-0.dtd"
   xmlns="http://www.w3.org/2000/svg"
   xmlns:svg="http://www.w3.org/2000/svg">
  <defs
     id="defs12" />
  <sodipodi:namedview
     id="namedview12"
     pagecolor="#ffffff"
     bordercolor="#000000"
     borderopacity="0.25"
     inkscape:showpageshadow="2"
     inkscape:pageopacity="0.0"
     inkscape:pagecheckerboard="true"
     inkscape:deskcolor="#d1d1d1"
     inkscape:zoom="0.888"
     inkscape:cx="577.7027"
     inkscape:cy="124.43694"
     inkscape:window-width="1920"
     inkscape:window-height="1009"
     inkscape:window-x="-8"
     inkscape:window-y="-8"
     inkscape:window-maximized="1"
     inkscape:current-layer="svg12" />
  <g
     fill="#020203"
     id="g11">
    <path
       d="M602.2 234.4 c-16.7 -2.8 -39.1 -10.3 -49.4 -16.6 -6.3 -3.8 -6.9 -4.5 -6.1 -7.8 0.7 -3 12 -31.9 13.2 -33.8 0.7 -1.1 2.4 -0.5 8.2 2.7 18.2 9.9 35.6 14.9 55.4 15.8 8.3 0.4 15.6 0.1 20 -0.6 19.4 -3.4 28.6 -19.2 18 -31 -4.6 -5.1 -14.5 -9.5 -30.7 -13.6 -34.3 -8.7 -41.6 -11 -53.3 -17.5 -9.1 -5 -14.7 -9.9 -19.3 -16.9 -5.3 -7.9 -6.9 -11.8 -8.8 -21.2 -1.4 -6.8 -1.5 -9.5 -0.5 -16.8 4.1 -31.5 19.9 -48.8 53.3 -58.3 11 -3.2 11.8 -3.2 31.3 -3.2 18.3 0 20.9 0.2 31 2.6 12.4 3.1 26.2 7.5 32.1 10.4 3.2 1.6 4 2.5 4.2 5.2 0.5 4.9 -10.1 35.1 -12.6 36 -0.6 0.2 -3.4 -0.9 -6.4 -2.4 -7.6 -3.9 -23.5 -9.1 -32.1 -10.4 -4 -0.7 -13.3 -1 -20.7 -0.9 -12.7 0.4 -13.9 0.6 -20.1 3.5 -7.5 3.6 -11.2 7.7 -13 14.6 -1.1 3.9 -1 5.2 0.5 9.1 3.9 10.4 11.3 14 48.3 23.7 22.6 5.9 27.8 7.6 36.6 11.9 13.4 6.5 24.8 18.2 28.7 29.5 6.8 19.2 3.8 40 -8.3 56.9 -4.6 6.4 -12.7 14 -18.2 17.1 -1.6 0.9 -4.9 2.7 -7.3 4.1 -5.7 3.2 -15.6 6.4 -25 8.1 -9.9 1.7 -38 1.6 -49 -0.2z"
       id="path5" />
    <path
       d="M745.2 231.8 c-1.6 -1.6 -1.8 -211.3 -0.1 -212.3 1.9 -1.3 46 -1.6 76.4 -0.6 27 0.8 31 1.2 40.2 3.5 18.5 4.6 30.6 11.6 42.7 24.7 12.2 13.1 17.6 28.4 17.6 49.1 -0.1 42.6 -28.6 71.4 -76.1 76.8 -4.6 0.6 -18.6 1 -31.1 1 -12.6 0 -22.8 0.1 -22.8 0.3 -0.1 0.1 -0.3 13 -0.7 28.7 -0.4 19.2 -0.9 28.7 -1.7 29.2 -2 1.3 -43.1 0.9 -44.4 -0.4z m106.3 -102.4 c8.5 -3.4 15.4 -9.9 19.3 -18.2 2.3 -4.9 2.7 -7 2.7 -15.2 0 -8.8 -0.3 -10.1 -3.3 -16.2 -3.4 -7 -8.7 -12.4 -15.6 -16 -7.3 -3.7 -15.8 -4.8 -39.8 -4.8 l-22.6 0 -0.6 4.8 c-0.7 6 -0.7 54.8 0 62.4 l0.6 5.7 5.1 0.4 c2.9 0.3 14.7 0.3 26.2 0.2 20.3 -0.3 21.2 -0.4 28 -3.1z"
       id="path6" />
    <path
       d="M953.8 231.9 c-1.7 -0.9 -1.8 -7.1 -1.8 -106.5 l0 -105.4 2.6 -1 c2.7 -1.1 146.2 -1.4 150.1 -0.4 2.1 0.6 2.1 1.1 2.5 17.2 0.2 9.2 0.1 18.1 -0.2 19.7 l-0.6 3 -53.4 0.5 -53.5 0.5 0 22 0 22 47.2 0.3 47.3 0.2 0.5 2.3 c0.3 1.2 0.4 10.1 0.3 19.7 l-0.3 17.5 -47.5 0.5 -47.5 0.5 -0.3 23.1 -0.2 23.2 2.2 0.6 c1.3 0.3 25.7 0.6 54.3 0.6 28.6 0 52.6 0.4 53.3 0.8 0.9 0.7 1.2 5.4 1 20.3 l-0.3 19.4 -77 0.2 c-49.1 0.1 -77.6 -0.2 -78.7 -0.8z"
       id="path7" />
    <path
       d="M1135.2 232.3 c-8.2 -0.3 -11.4 -0.7 -11.8 -1.7 -0.3 -0.7 2.5 -8.2 6.1 -16.7 3.7 -8.5 8.7 -20.3 11.2 -26.4 4.7 -11.6 9.5 -22.9 29.6 -70.5 6.9 -16.2 13.7 -32.4 15.2 -36 7.8 -18.8 9.9 -23.9 16.4 -39.9 3.9 -9.5 7.7 -18.4 8.6 -19.7 l1.5 -2.4 23.9 0 c20.4 0 24 0.2 25.1 1.6 1.4 1.6 6.4 12.5 13.7 29.9 2.5 6.1 8.2 19.3 12.6 29.5 4.3 10.2 15.7 36.7 25.2 59 9.5 22.3 22.3 52.1 28.4 66.4 6.1 14.2 10.8 26.3 10.5 26.7 -0.7 1.2 -46.5 1.1 -48.2 0 -0.8 -0.5 -5.1 -10.2 -9.7 -21.7 l-8.3 -20.9 -4.9 -0.6 c-2.6 -0.3 -24.3 -0.5 -48.1 -0.5 -37.3 0.1 -43.4 0.3 -44.2 1.6 -0.5 0.8 -4.3 10.1 -8.5 20.5 -4.1 10.5 -7.9 19.6 -8.4 20.4 -1 1.5 -15.5 2.1 -35.9 1.4z m131.2 -82.9 c0.9 -0.3 1.6 -1.1 1.6 -1.8 0 -0.6 -3.6 -10.1 -8.1 -21.1 -4.4 -11 -11.2 -28.1 -15 -38 -3.9 -9.9 -7.4 -18.4 -8 -18.9 -1.5 -1.6 -2.7 0.4 -8.3 15 -3 7.6 -9.7 24.8 -15 38.1 -5.3 13.3 -9.6 24.7 -9.6 25.2 0 0.6 3 1.2 6.8 1.4 12.4 0.6 54 0.7 55.6 0.1z"
       id="path8" />
    <path
       d="M1373.1 231.6 c-1.8 -2.1 -1.1 -210 0.6 -211.7 0.9 -0.9 13.4 -1.2 51.5 -1.2 47.3 0.1 50.9 0.2 60.5 2.2 20 4.1 35.9 11.5 43.7 20.2 11.2 12.5 17 22.9 20.7 37.6 4.5 18.3 0.6 41.6 -9.9 58.3 -6 9.4 -17 19.4 -27.6 25 -1.7 0.8 -3.1 2 -3.3 2.6 -0.4 1.1 19.9 31.5 39.5 59.1 2.9 4.1 5 7.9 4.7 8.4 -0.4 0.5 -11.2 0.9 -25.1 0.9 l-24.6 0 -2.4 -2.7 c-1.3 -1.6 -8.6 -12.6 -16.3 -24.6 -7.7 -12 -15.7 -24.4 -17.8 -27.5 l-3.8 -5.7 -19.5 -0.3 c-10.7 -0.1 -20.5 0 -21.7 0.3 l-2.3 0.5 0 28.8 c0 21.1 -0.3 29.1 -1.2 30 -1.9 1.9 -44.2 1.7 -45.7 -0.2z m88.4 -99.5 c14.2 -0.6 16.6 -1 21.5 -3.2 15.7 -7.3 24 -25.5 19.6 -42.9 -3 -11.8 -9.4 -19.1 -21 -23.9 -6 -2.6 -6.4 -2.6 -33.6 -2.6 l-27.5 0 -0.3 36.2 -0.2 36.2 6.2 0.4 c11 0.6 18.9 0.6 35.3 -0.2z"
       id="path9" />
    <path
       d="M1640.1 230.8 c-0.5 -1.3 -0.6 -18.5 -0.4 -38.3 l0.5 -36 -3.7 -6 c-5.9 -9.6 -33.3 -55.4 -44.5 -74.5 -5.6 -9.6 -11.3 -19.1 -12.5 -21 -5.7 -8.9 -20.5 -34.1 -20.5 -35 0 -1.9 5.7 -2.3 26.8 -1.7 14.8 0.4 21.9 1 22.9 1.9 2 1.7 6.3 8.5 22.3 35.8 24.1 41.1 32.6 54.5 34.5 54.5 1.1 0 2.7 -1.6 3.9 -4 1.2 -2.2 6 -10.5 10.7 -18.5 4.8 -8 15.3 -26.2 23.4 -40.5 8.1 -14.3 15.3 -26.6 16.1 -27.4 2.5 -2.7 47.4 -2.7 47.4 0.1 0 0.6 -4.4 8.5 -9.9 17.7 -5.4 9.1 -13.9 23.6 -18.8 32.1 -16.6 28.7 -34.6 59.4 -43 73.4 l-8.3 13.9 0 36.6 c0 27.2 -0.3 37 -1.2 37.9 -0.9 0.9 -7.4 1.2 -23 1.2 -21.8 0 -21.9 0 -22.7 -2.2z"
       id="path10" />
    <path
       d="M1776 231.8 c0 -0.9 12.9 -20.1 40.3 -59.8 9 -12.9 20 -29 24.6 -35.8 l8.4 -12.3 -3.2 -4.5 c-1.7 -2.5 -11.1 -16.3 -20.8 -30.7 -20.7 -30.7 -36.3 -53.7 -42.4 -62.5 -3.6 -5.3 -4.1 -6.5 -2.9 -7.3 0.9 -0.6 11.1 -0.8 25.7 -0.7 l24.1 0.3 2.7 2.5 c1.5 1.4 6.7 8.3 11.5 15.5 24 35.7 32.7 48 34.1 48.3 1.7 0.3 1.3 0.9 26.2 -36.9 8.5 -12.9 16.9 -24.7 18.6 -26.1 2.6 -2.3 4.4 -2.7 12.6 -3.3 10.4 -0.8 37.1 -0.3 38.1 0.7 0.5 0.6 -48.5 74.5 -61.3 92.4 -7.9 11.1 -7.8 10.4 -3.5 16.5 10.2 14.5 38.7 55.5 44.4 63.9 3.5 5.2 10.4 15.4 15.3 22.5 4.8 7.2 9.4 13.7 10.1 14.6 3 3.4 0 3.9 -25.7 3.9 -22.1 0 -24.9 -0.2 -26.7 -1.7 -1.1 -1 -8.2 -11 -15.8 -22.3 -27.5 -40.9 -31.6 -46.9 -32.9 -47.4 -1.5 -0.6 -8.8 9.6 -26.6 36.9 -5.7 8.8 -13.3 20.2 -16.8 25.3 l-6.4 9.3 -25.8 -0.2 c-14.6 -0.1 -25.9 -0.5 -25.9 -1.1z"
       id="path11" />
  </g>
  <g
     fill="#ea0609"
     id="g12">
    <path
       d="M475 232.9 c-7.4 -1.6 -19.8 -4.4 -27.5 -6.3 -7.7 -1.9 -21 -5.1 -29.5 -7.1 -8.5 -2 -26.5 -6.3 -40 -9.6 -13.5 -3.3 -29.7 -7.1 -36 -8.4 -13.1 -2.7 -58.6 -13.1 -73.5 -16.8 -12.9 -3.2 -37 -8.9 -51 -12.1 -6 -1.4 -17.7 -4.1 -26 -6.1 -8.2 -2 -18.4 -4.3 -22.6 -5.1 -4.1 -0.8 -15.6 -3.5 -25.5 -6 -9.8 -2.5 -19.9 -5 -22.4 -5.5 -2.5 -0.5 -11.5 -2.5 -20 -4.5 -8.5 -1.9 -19.3 -4.4 -24 -5.4 -15.2 -3.4 -30.3 -7 -38 -9 -4.1 -1.1 -8.8 -2.2 -10.3 -2.5 -1.5 -0.3 -2.5 -1 -2.2 -1.4 0.7 -1.2 52 -13.6 77 -18.6 3.9 -0.8 12 -2.6 18 -4 17.6 -4.2 27.2 -6.4 39.5 -9 6.3 -1.3 14.9 -3.3 19 -4.3 4.1 -1.1 9.3 -2.2 11.5 -2.6 2.2 -0.4 8.5 -1.8 14 -3 5.5 -1.3 14.3 -3.4 19.5 -4.6 5.2 -1.1 11.8 -2.7 14.5 -3.5 2.8 -0.8 12 -3 20.5 -5 8.5 -2 20.9 -4.9 27.5 -6.5 22.4 -5.4 39 -9.2 46 -10.5 3.9 -0.8 12.9 -2.8 20 -4.5 7.2 -1.7 17.5 -4.2 23 -5.5 5.5 -1.3 23.7 -5.8 40.5 -9.9 16.8 -4.1 33.2 -7.9 36.5 -8.6 3.3 -0.6 8.5 -1.8 11.5 -2.5 5.3 -1.4 20.7 -5.2 24.3 -6 0.9 -0.2 1.7 0.2 1.7 0.8 0 0.7 -8 5.1 -17.8 9.9 -24.6 12.2 -76.6 38.8 -88.4 45.4 -5.4 3 -10.1 5.4 -10.4 5.4 -0.9 0 -9.8 6.2 -10.6 7.4 -1 1.5 -0.1 2.4 5 4.6 13.5 6.1 45.6 15.7 78.7 23.6 9.5 2.3 12.6 3.5 11.9 4.6 -0.5 0.7 -3.8 0.8 -9.8 0.4 -17.4 -1.2 -151.6 -0.7 -201.1 0.9 -85.2 2.6 -132.5 5 -132.5 6.5 0 0.4 10.2 1 22.7 1.3 12.6 0.3 36.3 1.3 52.8 2.1 98.3 5.1 172 6.6 228.3 4.7 18.8 -0.6 34.8 -1.2 35.4 -1.4 0.6 -0.1 1.3 0.3 1.5 1 0.2 0.7 -0.6 1.4 -1.9 1.7 -24.3 4.6 -66 17.2 -81.5 24.6 -10.6 5 -12.5 7.2 -8 8.9 1.2 0.5 9.2 4.7 17.8 9.4 8.6 4.7 19.7 10.4 24.5 12.7 11.7 5.5 72.3 36 79.4 39.9 6.6 3.7 5.4 3.7 -12 0z"
       id="path12" />
  </g>
</svg>
